<svg xmlns="http://www.w3.org/2000/svg" viewBox="0 0 1200 330">
<defs>
  <marker id="arrow" markerWidth="12" markerHeight="12" refX="10" refY="4" orient="auto"><path d="M0,0 L12,4 L0,8 Z" fill="#2b2b2b"/></marker>
</defs>
<rect width="1200" height="330" fill="#fffdf9"/>
<text x="50" y="40" font-family="Georgia" font-size="28" font-weight="bold" fill="#211d1a">Telemetry-Aware Selection Control Loop</text>
<g font-family="Georgia" fill="#211d1a">
  <rect x="40" y="110" rx="14" ry="14" width="180" height="80" fill="#e8f1f8" stroke="#2a6f97" stroke-width="2.4"/>
  <text x="130" y="145" text-anchor="middle" font-size="22">Kernel</text>
  <text x="130" y="171" text-anchor="middle" font-size="22">candidates</text>
  <rect x="270" y="110" rx="14" ry="14" width="190" height="80" fill="#eef5e6" stroke="#6b8e23" stroke-width="2.4"/>
  <text x="365" y="145" text-anchor="middle" font-size="22">Repeated</text>
  <text x="365" y="171" text-anchor="middle" font-size="22">benchmark trials</text>
  <rect x="510" y="65" rx="14" ry="14" width="220" height="70" fill="#f9f1e5" stroke="#bc6c25" stroke-width="2.4"/>
  <text x="620" y="105" text-anchor="middle" font-size="20">Telemetry capture</text>
  <rect x="510" y="160" rx="14" ry="14" width="220" height="70" fill="#fce8ea" stroke="#8c2f39" stroke-width="2.4"/>
  <text x="620" y="200" text-anchor="middle" font-size="20">Contamination state</text>
  <rect x="790" y="110" rx="14" ry="14" width="180" height="80" fill="#e8f1f8" stroke="#2a6f97" stroke-width="2.4"/>
  <text x="880" y="145" text-anchor="middle" font-size="22">Finalist</text>
  <text x="880" y="171" text-anchor="middle" font-size="22">pair analysis</text>
  <rect x="1020" y="110" rx="14" ry="14" width="150" height="80" fill="#eef5e6" stroke="#6b8e23" stroke-width="2.4"/>
  <text x="1095" y="145" text-anchor="middle" font-size="20">Promote /</text>
  <text x="1095" y="171" text-anchor="middle" font-size="20">Defer / Reject</text>
</g>
<g stroke="#2b2b2b" stroke-width="2.4" fill="none" marker-end="url(#arrow)">
  <line x1="220" y1="150" x2="270" y2="150"/>
  <line x1="460" y1="150" x2="510" y2="100"/>
  <line x1="460" y1="150" x2="510" y2="195"/>
  <line x1="730" y1="195" x2="790" y2="150"/>
  <line x1="970" y1="150" x2="1020" y2="150"/>
  <path d="M1020 225 C900 300, 520 300, 365 195"/>
</g>
<text x="760" y="305" font-family="Georgia" font-size="18" fill="#8c2f39">Only unresolved finalist pairs receive extra reruns</text>
</svg>